<?xml version="1.0" encoding="UTF-8"?>
<svg height="128px" viewBox="0 0 128 128" width="128px" xmlns="http://www.w3.org/2000/svg" xmlns:xlink="http://www.w3.org/1999/xlink">
    <defs>
        <linearGradient id="a" gradientTransform="matrix(0.943549 0 0 0.725807 3.65461 -95.935838)" gradientUnits="userSpaceOnUse" x1="64" x2="64" y1="254" y2="292">
            <stop offset="0" stop-color="#1a5fb4"/>
            <stop offset="1" stop-color="#3584e4"/>
        </linearGradient>
        <filter id="b" height="100%" width="100%" x="0%" y="0%">
            <feColorMatrix in="SourceGraphic" type="matrix" values="0 0 0 0 1 0 0 0 0 1 0 0 0 0 1 0 0 0 1 0"/>
        </filter>
        <mask id="c">
            <g filter="url(#b)">
                <rect fill-opacity="0.211" height="128" width="128"/>
            </g>
        </mask>
        <mask id="d">
            <g filter="url(#b)">
                <rect fill-opacity="0.211" height="128" width="128"/>
            </g>
        </mask>
        <clipPath id="e">
            <rect height="152" width="192"/>
        </clipPath>
        <g id="f" clip-path="url(#e)">
            <path d="m 34.300781 90.59375 h 75.484375 v 1.449219 h -75.484375 z m 0 0" fill="#ffffff"/>
        </g>
        <clipPath id="g">
            <rect height="128" width="128"/>
        </clipPath>
        <clipPath id="h">
            <rect height="128" width="128"/>
        </clipPath>
        <mask id="i">
            <g clip-path="url(#h)" filter="url(#b)">
                <g clip-path="url(#g)">
                    <path d="m 26.300781 60.839844 h 75.484375 v 55.160156 h -75.484375 z m 0 0" fill="url(#a)"/>
                    <path d="m 26.300781 25.507812 h 75.484375 v 49.085938 h -75.484375 z m 0 0" fill="#1c71d8"/>
                    <use mask="url(#d)" transform="matrix(1 0 0 1 -8 -16)" xlink:href="#f"/>
                    <path d="m 101.683594 75.117188 v -49.648438 l 18.550781 10.707031 v 48.097657 z m 0 0" fill="#62a0ea"/>
                    <path d="m 26.324219 26.078125 h 75.253906 v 28.203125 h -75.253906 z m 0 0" fill="#1a5fb4"/>
                    <path d="m 43.101562 24.566406 h 42.425782 c 3.804687 0 6.886718 3.128906 6.886718 6.992188 v 37.894531 c 0 3.859375 -3.082031 6.992187 -6.886718 6.992187 h -42.425782 c -3.804687 0 -6.886718 -3.132812 -6.886718 -6.992187 v -37.894531 c 0 -3.863282 3.082031 -6.992188 6.886718 -6.992188 z m 0 0" fill-opacity="0.101961"/>
                    <path d="m 43.101562 17.089844 h 42.425782 c 3.804687 0 6.886718 4.035156 6.886718 9.007812 v 48.816406 c 0 4.972657 -3.082031 9.003907 -6.886718 9.003907 h -42.425782 c -3.804687 0 -6.886718 -4.03125 -6.886718 -9.003907 v -48.816406 c 0 -4.972656 3.082031 -9.007812 6.886718 -9.007812 z m 0 0" fill="#f6f5f4"/>
                    <path d="m 43.101562 17.089844 c -3.816406 0 -6.886718 3.117187 -6.886718 6.992187 v 10.300781 h 56.199218 v -10.300781 c 0 -3.875 -3.070312 -6.992187 -6.886718 -6.992187 z m 0 0" fill="#deddda"/>
                    <path d="m 81.601562 22.925781 c -0.167968 0.003907 -0.332031 0.070313 -0.453124 0.191407 c -0.253907 0.253906 -0.253907 0.664062 0 0.917968 l 1.703124 1.703125 l -1.703124 1.703125 c -0.253907 0.253906 -0.253907 0.664063 0 0.914063 c 0.253906 0.253906 0.664062 0.253906 0.917968 0 l 1.703125 -1.703125 l 1.699219 1.703125 c 0.253906 0.253906 0.664062 0.253906 0.917969 0 c 0.253906 -0.25 0.253906 -0.660157 0 -0.914063 l -1.703125 -1.703125 l 1.703125 -1.703125 c 0.253906 -0.253906 0.253906 -0.664062 0 -0.917968 c -0.121094 -0.121094 -0.289063 -0.191407 -0.460938 -0.191407 c -0.171875 0.003907 -0.335937 0.070313 -0.457031 0.191407 l -1.699219 1.703124 l -1.703125 -1.703124 c -0.125 -0.121094 -0.289062 -0.191407 -0.464844 -0.191407 z m 0 0" fill="#ffffff"/>
                    <path d="m 36.214844 34.382812 h 56.199218 v 0.535157 h -56.199218 z m 0 0" fill="#c0bfbc"/>
                    <path d="m 60.992188 42.226562 v 5.523438 h -2.933594 l 5.695312 6.445312 l 5.695313 -6.445312 h -2.933594 v -5.523438 z m 2.042968 12.886719 c -0.160156 0 -0.257812 0.273438 -0.257812 0.605469 v 2.097656 c -0.640625 0.148438 -1.246094 0.410156 -1.785156 0.75 l -1.496094 -1.496094 c -0.234375 -0.234374 -0.492188 -0.34375 -0.601563 -0.230468 l -1.410156 1.410156 c -0.113281 0.113281 -0.003906 0.367188 0.230469 0.605469 l 1.496094 1.492187 c -0.34375 0.542969 -0.601563 1.144532 -0.75 1.785156 h -2.097657 c -0.335937 0 -0.605469 0.097657 -0.605469 0.257813 v 2.015625 c 0 0.15625 0.269532 0.257812 0.605469 0.257812 h 2.097657 c 0.148437 0.640626 0.40625 1.242188 0.75 1.785157 l -1.496094 1.492187 c -0.238282 0.238282 -0.34375 0.492188 -0.230469 0.605469 l 1.410156 1.410156 c 0.109375 0.113281 0.367188 0.003907 0.601563 -0.230469 l 1.496094 -1.496093 c 0.539062 0.339843 1.144531 0.601562 1.785156 0.75 v 2.097656 c 0 0.332031 0.097656 0.605469 0.257812 0.605469 h 2.011719 c 0.160156 0 0.261719 -0.273438 0.261719 -0.605469 v -2.097656 c 0.640625 -0.148438 1.242187 -0.410157 1.78125 -0.75 l 1.496094 1.496093 c 0.234374 0.234376 0.492187 0.34375 0.605468 0.230469 l 1.410156 -1.410156 c 0.109376 -0.113281 0.003907 -0.367187 -0.230468 -0.605469 l -1.496094 -1.492187 c 0.339844 -0.542969 0.601562 -1.144531 0.746094 -1.785157 h 2.101562 c 0.332032 0 0.601563 -0.097656 0.601563 -0.257812 v -2.015625 c 0 -0.15625 -0.269531 -0.257813 -0.601563 -0.257813 h -2.101562 c -0.144532 -0.640624 -0.40625 -1.242187 -0.746094 -1.785156 l 1.496094 -1.492187 c 0.234375 -0.238281 0.339844 -0.492188 0.230468 -0.605469 l -1.410156 -1.410156 c -0.113281 -0.113282 -0.371094 -0.003906 -0.605468 0.230468 l -1.496094 1.496094 c -0.539063 -0.339844 -1.140625 -0.601562 -1.78125 -0.75 v -2.097656 c 0 -0.332031 -0.101563 -0.605469 -0.261719 -0.605469 z m 1.007813 5.726563 c 1.40625 0 2.558593 1.152344 2.558593 2.558594 s -1.152343 2.558593 -2.558593 2.558593 c -1.410157 0 -2.5625 -1.152343 -2.5625 -2.558593 s 1.152343 -2.558594 2.5625 -2.558594 z m 0 0" fill="#1a5fb4"/>
                    <path d="m 26.316406 75.117188 v -49.648438 l -18.550781 10.707031 v 48.097657 z m 0 0" fill="#62a0ea"/>
                    <path d="m 26.195312 25.4375 h 75.414063 v 0.652344 h -75.414063 z m 0 0" fill="#e7d5c7"/>
                    <path d="m 26.390625 74.601562 h 75.742187 v 20.371094 h -75.742187 z m 0 0" fill="#62a0ea"/>
                </g>
            </g>
        </mask>
        <mask id="j">
            <g filter="url(#b)">
                <rect fill-opacity="0.8" height="128" width="128"/>
            </g>
        </mask>
        <linearGradient id="k" gradientTransform="matrix(0 0.37 -0.98462 0 295.38501 -30.360001)" gradientUnits="userSpaceOnUse" x1="300" x2="428" y1="235" y2="235">
            <stop offset="0" stop-color="#f9f06b"/>
            <stop offset="1" stop-color="#f5c211"/>
        </linearGradient>
        <clipPath id="l">
            <rect height="128" width="128"/>
        </clipPath>
        <clipPath id="m">
            <rect height="128" width="128"/>
        </clipPath>
    </defs>
    <path d="m 26.300781 60.839844 h 75.484375 v 55.160156 h -75.484375 z m 0 0" fill="url(#a)"/>
    <path d="m 26.300781 25.507812 h 75.484375 v 49.085938 h -75.484375 z m 0 0" fill="#1c71d8"/>
    <use mask="url(#c)" transform="matrix(1 0 0 1 -8 -16)" xlink:href="#f"/>
    <path d="m 101.683594 75.117188 v -49.648438 l 18.550781 10.707031 v 48.097657 z m 0 0" fill="#62a0ea"/>
    <path d="m 26.324219 26.078125 h 75.253906 v 28.203125 h -75.253906 z m 0 0" fill="#1a5fb4"/>
    <path d="m 43.101562 24.566406 h 42.425782 c 3.804687 0 6.886718 3.128906 6.886718 6.992188 v 37.894531 c 0 3.859375 -3.082031 6.992187 -6.886718 6.992187 h -42.425782 c -3.804687 0 -6.886718 -3.132812 -6.886718 -6.992187 v -37.894531 c 0 -3.863282 3.082031 -6.992188 6.886718 -6.992188 z m 0 0" fill-opacity="0.101961"/>
    <path d="m 43.101562 17.089844 h 42.425782 c 3.804687 0 6.886718 4.035156 6.886718 9.007812 v 48.816406 c 0 4.972657 -3.082031 9.003907 -6.886718 9.003907 h -42.425782 c -3.804687 0 -6.886718 -4.03125 -6.886718 -9.003907 v -48.816406 c 0 -4.972656 3.082031 -9.007812 6.886718 -9.007812 z m 0 0" fill="#f6f5f4"/>
    <path d="m 43.101562 17.089844 c -3.816406 0 -6.886718 3.117187 -6.886718 6.992187 v 10.300781 h 56.199218 v -10.300781 c 0 -3.875 -3.070312 -6.992187 -6.886718 -6.992187 z m 0 0" fill="#deddda"/>
    <path d="m 81.601562 22.925781 c -0.167968 0.003907 -0.332031 0.070313 -0.453124 0.191407 c -0.253907 0.253906 -0.253907 0.664062 0 0.917968 l 1.703124 1.703125 l -1.703124 1.703125 c -0.253907 0.253906 -0.253907 0.664063 0 0.914063 c 0.253906 0.253906 0.664062 0.253906 0.917968 0 l 1.703125 -1.703125 l 1.699219 1.703125 c 0.253906 0.253906 0.664062 0.253906 0.917969 0 c 0.253906 -0.25 0.253906 -0.660157 0 -0.914063 l -1.703125 -1.703125 l 1.703125 -1.703125 c 0.253906 -0.253906 0.253906 -0.664062 0 -0.917968 c -0.121094 -0.121094 -0.289063 -0.191407 -0.460938 -0.191407 c -0.171875 0.003907 -0.335937 0.070313 -0.457031 0.191407 l -1.699219 1.703124 l -1.703125 -1.703124 c -0.125 -0.121094 -0.289062 -0.191407 -0.464844 -0.191407 z m 0 0" fill="#ffffff"/>
    <path d="m 36.214844 34.382812 h 56.199218 v 0.535157 h -56.199218 z m 0 0" fill="#c0bfbc"/>
    <path d="m 60.992188 42.226562 v 5.523438 h -2.933594 l 5.695312 6.445312 l 5.695313 -6.445312 h -2.933594 v -5.523438 z m 2.042968 12.886719 c -0.160156 0 -0.257812 0.273438 -0.257812 0.605469 v 2.097656 c -0.640625 0.148438 -1.246094 0.410156 -1.785156 0.75 l -1.496094 -1.496094 c -0.234375 -0.234374 -0.492188 -0.34375 -0.601563 -0.230468 l -1.410156 1.410156 c -0.113281 0.113281 -0.003906 0.367188 0.230469 0.605469 l 1.496094 1.492187 c -0.34375 0.542969 -0.601563 1.144532 -0.75 1.785156 h -2.097657 c -0.335937 0 -0.605469 0.097657 -0.605469 0.257813 v 2.015625 c 0 0.15625 0.269532 0.257812 0.605469 0.257812 h 2.097657 c 0.148437 0.640626 0.40625 1.242188 0.75 1.785157 l -1.496094 1.492187 c -0.238282 0.238282 -0.34375 0.492188 -0.230469 0.605469 l 1.410156 1.410156 c 0.109375 0.113281 0.367188 0.003907 0.601563 -0.230469 l 1.496094 -1.496093 c 0.539062 0.339843 1.144531 0.601562 1.785156 0.75 v 2.097656 c 0 0.332031 0.097656 0.605469 0.257812 0.605469 h 2.011719 c 0.160156 0 0.261719 -0.273438 0.261719 -0.605469 v -2.097656 c 0.640625 -0.148438 1.242187 -0.410157 1.78125 -0.75 l 1.496094 1.496093 c 0.234374 0.234376 0.492187 0.34375 0.605468 0.230469 l 1.410156 -1.410156 c 0.109376 -0.113281 0.003907 -0.367187 -0.230468 -0.605469 l -1.496094 -1.492187 c 0.339844 -0.542969 0.601562 -1.144531 0.746094 -1.785157 h 2.101562 c 0.332032 0 0.601563 -0.097656 0.601563 -0.257812 v -2.015625 c 0 -0.15625 -0.269531 -0.257813 -0.601563 -0.257813 h -2.101562 c -0.144532 -0.640624 -0.40625 -1.242187 -0.746094 -1.785156 l 1.496094 -1.492187 c 0.234375 -0.238281 0.339844 -0.492188 0.230468 -0.605469 l -1.410156 -1.410156 c -0.113281 -0.113282 -0.371094 -0.003906 -0.605468 0.230468 l -1.496094 1.496094 c -0.539063 -0.339844 -1.140625 -0.601562 -1.78125 -0.75 v -2.097656 c 0 -0.332031 -0.101563 -0.605469 -0.261719 -0.605469 z m 1.007813 5.726563 c 1.40625 0 2.558593 1.152344 2.558593 2.558594 s -1.152343 2.558593 -2.558593 2.558593 c -1.410157 0 -2.5625 -1.152343 -2.5625 -2.558593 s 1.152343 -2.558594 2.5625 -2.558594 z m 0 0" fill="#1a5fb4"/>
    <path d="m 26.316406 75.117188 v -49.648438 l -18.550781 10.707031 v 48.097657 z m 0 0" fill="#62a0ea"/>
    <path d="m 26.195312 25.4375 h 75.414063 v 0.652344 h -75.414063 z m 0 0" fill="#e7d5c7"/>
    <path d="m 26.390625 74.601562 h 75.742187 v 20.371094 h -75.742187 z m 0 0" fill="#62a0ea"/>
    <g clip-path="url(#m)" mask="url(#i)">
        <g clip-path="url(#l)" mask="url(#j)">
            <path d="m 128 80.640625 v 47.359375 h -128 v -47.359375 z m 0 0" fill="url(#k)"/>
            <path d="m 13.308594 80.640625 l 47.355468 47.359375 h 21.214844 l -47.359375 -47.359375 z m 42.421875 0 l 47.363281 47.359375 h 21.214844 l -47.363282 -47.359375 z m 42.429687 0 l 29.839844 29.839844 v -21.210938 l -8.628906 -8.628906 z m -98.160156 7.90625 v 21.214844 l 18.238281 18.238281 h 21.214844 z m 0 0"/>
        </g>
    </g>
</svg>
